#!OML:ASF F:\VICON\USERDATA\INSTALL\rory3\rory3.ASF
:FULLY-SPECIFIED
:DEGREES
44
root 0.9213364864304843 17.841364701686594 4.8251480290772415 -1.4302044234127549 2.447730110494902 2.482000082946077
lfemur 12.388464238811327 -1.0747411867411445 -25.29685305898029
ltibia 18.909053193080187
lfoot -16.03813752633595 -3.4333782166732805
ltoes -12.743532206074686
rfemur -28.10134313662585 3.1958802013925247 18.870697891036805
rtibia 16.295339333959003
rfoot -6.614997355228274 -13.081781502538504
rtoes -9.873393684286224
lowerback 10.30870381209818 -1.2476454609830148 -5.157674754344444
upperback 0.15312462554060446 -2.2724217443156594 1.3813066205505686
thorax -5.674945340811233 -0.931893896596532 5.624452444754776
lowerneck -16.754991121573497 -3.0121799776404043 -2.5842240771000977
upperneck 20.995364063366104 -3.7538921323143573 1.7571577061233958
head 9.448864721336461 -1.7787113512567911 0.5326957653757902
lclavicle 2.981812426622911e-16 5.4645450296948036e-17
lhumerus -23.723537943695263 -1.1688873830356514 79.97601468358062
lradius 36.14076118186978
lwrist 11.098929593599518
lhand -30.617150069888357 19.01060872824317
lfingers 7.125020000000001
lthumb -3.6683590594478837 48.84489930217284
rclavicle 2.9913903124387577e-16 5.672242680302929e-17
rhumerus -37.76339700926488 -26.066190048017 -73.7851668902261
rradius 25.429584021859323
rwrist 5.223299910525953
rhand -17.362187529295152 23.226073829494045
rfingers 7.125020000000001
rthumb 9.02968119639109 -6.0845904084244244
45
root 0.8659697302452479 17.755637743375875 6.078746435331972 -2.1119703425617873 2.613066214271877 2.163975773955083
lfemur 13.631256319263013 -1.906153274619582 -24.79999262278342
ltibia 21.83594580305035
lfoot -15.057551694455121 -4.560709464592258
ltoes -19.845608238350252
rfemur -28.509076500277814 1.3117259692374177 20.550843946688097
rtibia 22.954946845427003
rfoot -5.966478874392138 -10.05699979980988
rtoes -5.919396669360638
lowerback 10.464868348606634 -1.3048567737405343 -4.770871283264654
upperback 0.5024690386371675 -2.24495412679971 1.4870795546176185
thorax -5.586210782681373 -0.9114852284433175 5.43336547872501
lowerneck -16.81866767552578 -2.9305167067917206 -2.5257230375523374
upperneck 21.018936687930097 -3.6051003733398543 1.5448454909360523
head 9.46758535705971 -1.7359041015510313 0.4841457905735215
lclavicle 2.9832001744616234e-16 5.474526008841773e-17
lhumerus -24.099165244048947 -0.3060665113095902 79.87199882408072
lradius 36.419462016193734
lwrist 11.483440672291366
lhand -31.36372782209435 18.01890915164779
lfingers 7.125020000000001
lthumb -4.567528418110787 47.728303161901934
rclavicle 2.984849471208418e-16 5.6212376563213e-17
rhumerus -38.85455399789778 -27.548847374525 -72.28407583040111
rradius 24.03436786636365
rwrist 6.704384803857707
rhand -17.432059487862702 23.15572549069973
rfingers 7.125020000000001
rthumb 8.937744660061611 -6.28745155744067
46
root 0.7813888006503161 17.794467894200054 6.621566632279713 -2.5993031502174992 4.051292438254614 1.6328373263863574
lfemur 14.080761140394422 -3.1254664081376746 -24.051942463420353
ltibia 25.79008146671493
lfoot -10.716671485933915 -7.5559658360297925
ltoes -24.160182018454613
rfemur -27.271858269346286 2.921775026915704 20.77796271928229
rtibia 26.412987339199912
rfoot -4.083780139121981 -9.708254194932277
rtoes -2.766313579434647
lowerback 10.250067797959183 -1.706709791370259 -4.712361855887053
upperback 0.43817155238182764 -2.7296635508252374 1.6887211939504871
thorax -5.56944749687766 -1.111568076178946 5.786633085418864
lowerneck -16.681599906317622 -2.8044549694372014 -2.4099212947288544
upperneck 21.180443193137435 -3.371596668660332 0.9031236894916802
head 9.506598281620155 -1.6804968510470442 0.3205590821180704
lclavicle 2.9828885933695134e-16 5.472275137430953e-17
lhumerus -25.476966930383053 1.2955705928800954 79.99965683642033
lradius 35.98649906826893
lwrist 11.108958368385526
lhand -32.036067700296655 16.95418095454256
lfingers 7.125020000000001
lthumb -5.309033982832614 46.688708438977734
rclavicle 2.9744111033921453e-16 5.542025622510128e-17
rhumerus -39.99189870540567 -28.71770757075396 -70.6030632511874
rradius 22.707143761983538
rwrist 8.478642085864433
rhand -17.451467745273433 22.89665091653641
rfingers 7.125020000000001
rthumb 8.857987872468847 -6.701890788780646
47
root 0.703569070667958 17.825857909076934 8.200137100808037 -3.4222673369648273 4.509111053479614 -0.47507820844393667
lfemur 12.133478615160932 -3.802222213334142 -21.358832287545436
ltibia 33.788572916599755
lfoot -3.8683233217764283 -12.156301757715095
ltoes -24.842101512788773
rfemur -25.38024011824519 3.149756796023321 23.622653244292405
rtibia 28.12212955597885
rfoot -2.6691962034045007 -8.353884815915796
rtoes 2.7260451048448116
lowerback 10.590649786789262 -1.934953412925434 -2.736225855050729
upperback 0.3955025888608497 -2.6580810316347527 2.3402222296916277
thorax -5.880924707800115 -1.1020594209755525 5.319456136622005
lowerneck -16.342675156787344 -2.7747544899743803 -2.385947281376576
upperneck 21.38555377231308 -3.2673329251920435 0.41082963659576177
head 9.535646764643902 -1.6660820793480355 0.21559544899751346
lclavicle 2.978142030565002e-16 5.4381984210980486e-17
lhumerus -27.071757537185178 3.110464673574881 80.2276982061667
lradius 34.60917635573038
lwrist 10.781424299720626
lhand -32.365160891490135 16.015851268547273
lfingers 7.125020000000001
lthumb -5.7468523104006035 45.672683238233894
rclavicle 2.950654179560805e-16 5.337537093944548e-17
rhumerus -40.95584422368721 -29.91733633158231 -68.8102460972474
rradius 21.268547129705635
rwrist 10.543062546925047
rhand -17.666600622409423 22.350222818286635
rfingers 7.125020000000001
rthumb 8.62833138891952 -7.268545140089216
